<svg xmlns="http://www.w3.org/2000/svg" viewBox="0 0 1200 630" role="img">
<defs>
  <linearGradient id="bg" x1="0" y1="0" x2="1" y2="1"><stop offset="0" stop-color="#030303"/><stop offset=".55" stop-color="#171717"/><stop offset="1" stop-color="#050505"/></linearGradient>
  <radialGradient id="glowA" cx="30%" cy="18%" r="65%"><stop offset="0" stop-color="#ffffff" stop-opacity=".22"/><stop offset=".42" stop-color="#ffffff" stop-opacity=".05"/><stop offset="1" stop-color="#ffffff" stop-opacity="0"/></radialGradient>
  <filter id="shadow" x="-30%" y="-30%" width="160%" height="170%"><feDropShadow dx="0" dy="28" stdDeviation="28" flood-color="#000" flood-opacity=".42"/></filter>
  <filter id="soft" x="-20%" y="-20%" width="140%" height="140%"><feGaussianBlur stdDeviation="18"/></filter>
  <style>
    .grid{stroke:#fff;stroke-opacity:.05;stroke-width:1}.ring{fill:none;stroke:#fff;stroke-opacity:.16;stroke-width:2}.panel{fill:#ffffff;fill-opacity:.075;stroke:#ffffff;stroke-opacity:.22;stroke-width:1.4}.panel2{fill:#ffffff;fill-opacity:.12;stroke:#ffffff;stroke-opacity:.25;stroke-width:1.2}.title{font:950 74px Arial,Helvetica,sans-serif;fill:#f8f7ef;letter-spacing:-3px}.label{font:900 19px Arial,Helvetica,sans-serif;fill:#aeb3b1;letter-spacing:4px}.body{font:800 23px Arial,Helvetica,sans-serif;fill:#f8f7ef}.tiny{font:800 15px Arial,Helvetica,sans-serif;fill:#d7d9d5;letter-spacing:1px}.muted{font:800 16px Arial,Helvetica,sans-serif;fill:#8f9693;letter-spacing:2px}
  </style>
</defs><rect width="1200" height="630" fill="url(#bg)"/><rect width="1200" height="630" fill="url(#glowA)"/><line class="grid" x1="0" y1="0" x2="0" y2="630"/><line class="grid" x1="100" y1="0" x2="100" y2="630"/><line class="grid" x1="200" y1="0" x2="200" y2="630"/><line class="grid" x1="300" y1="0" x2="300" y2="630"/><line class="grid" x1="400" y1="0" x2="400" y2="630"/><line class="grid" x1="500" y1="0" x2="500" y2="630"/><line class="grid" x1="600" y1="0" x2="600" y2="630"/><line class="grid" x1="700" y1="0" x2="700" y2="630"/><line class="grid" x1="800" y1="0" x2="800" y2="630"/><line class="grid" x1="900" y1="0" x2="900" y2="630"/><line class="grid" x1="1000" y1="0" x2="1000" y2="630"/><line class="grid" x1="1100" y1="0" x2="1100" y2="630"/><line class="grid" x1="1200" y1="0" x2="1200" y2="630"/><line class="grid" x1="0" y1="0" x2="1200" y2="0"/><line class="grid" x1="0" y1="90" x2="1200" y2="90"/><line class="grid" x1="0" y1="180" x2="1200" y2="180"/><line class="grid" x1="0" y1="270" x2="1200" y2="270"/><line class="grid" x1="0" y1="360" x2="1200" y2="360"/><line class="grid" x1="0" y1="450" x2="1200" y2="450"/><line class="grid" x1="0" y1="540" x2="1200" y2="540"/><line class="grid" x1="0" y1="630" x2="1200" y2="630"/>
<circle class="ring" cx="1005" cy="138" r="132"/><circle class="ring" cx="1018" cy="520" r="92"/><circle class="ring" cx="146" cy="500" r="132"/>
<g filter="url(#soft)" opacity=".5"><circle cx="780" cy="170" r="90" fill="#3ecbff"/><circle cx="905" cy="420" r="92" fill="#ffb72b"/><circle cx="300" cy="175" r="74" fill="#6ef0c2"/></g>
<rect class="panel" x="62" y="58" width="1076" height="514" rx="58"/>
<g transform="translate(92 92)"><text class="label" x="0" y="0">RA1NDROP PRODUCT</text><text class="title" x="0" y="78">Quick</text><text class="title" x="0" y="158">Capture</text><text class="body" x="0" y="202">Local-first thought processor</text></g>
<g filter="url(#shadow)" transform="translate(454 104)">
  <rect class="panel2" width="470" height="360" rx="42"/>
  <rect x="26" y="28" width="418" height="58" rx="22" fill="#f8f7ef" opacity=".94"/>
  <circle cx="58" cy="57" r="12" fill="#ffb72b"/><circle cx="94" cy="57" r="12" fill="#3ecbff"/><circle cx="130" cy="57" r="12" fill="#6ef0c2"/>
  <text x="174" y="64" font-family="Arial" font-size="18" font-weight="900" fill="#111" letter-spacing="2">CAPTURE WINDOW</text>
  <rect x="36" y="118" width="166" height="156" rx="26" fill="#fff" opacity=".12"/><text x="62" y="164" class="tiny">Clipboard</text><path d="M62 196h96M62 226h66" stroke="#fff" stroke-opacity=".55" stroke-width="8" stroke-linecap="round"/>
  <rect x="232" y="118" width="202" height="156" rx="26" fill="#fff" opacity=".1"/><text x="258" y="164" class="tiny">AI Processor</text><path d="M258 198h132M258 228h92" stroke="#6ef0c2" stroke-opacity=".8" stroke-width="8" stroke-linecap="round"/>
  <rect x="70" y="304" width="322" height="36" rx="18" fill="#ffb72b" opacity=".82"/><text x="150" y="328" font-family="Arial" font-size="16" font-weight="950" fill="#111">Save to Obsidian</text>
</g>
<g transform="translate(92 486)"><text class="muted" x="0" y="0">CLIPBOARD / IMAGES / OBSIDIAN / AI PROCESSORS</text><text class="tiny" x="0" y="48">Capture quickly</text><text class="tiny" x="220" y="48">Keep original</text><text class="tiny" x="430" y="48">Process once</text><text class="tiny" x="624" y="48">Review later</text></g>
</svg>