<svg xmlns="http://www.w3.org/2000/svg" viewBox="0 0 1200 630" role="img">
<defs>
  <linearGradient id="bg" x1="0" y1="0" x2="1" y2="1"><stop offset="0" stop-color="#030303"/><stop offset=".55" stop-color="#171717"/><stop offset="1" stop-color="#050505"/></linearGradient>
  <radialGradient id="glowA" cx="30%" cy="18%" r="65%"><stop offset="0" stop-color="#ffffff" stop-opacity=".22"/><stop offset=".42" stop-color="#ffffff" stop-opacity=".05"/><stop offset="1" stop-color="#ffffff" stop-opacity="0"/></radialGradient>
  <filter id="shadow" x="-30%" y="-30%" width="160%" height="170%"><feDropShadow dx="0" dy="28" stdDeviation="28" flood-color="#000" flood-opacity=".42"/></filter>
  <filter id="soft" x="-20%" y="-20%" width="140%" height="140%"><feGaussianBlur stdDeviation="18"/></filter>
  <style>
    .grid{stroke:#fff;stroke-opacity:.05;stroke-width:1}.ring{fill:none;stroke:#fff;stroke-opacity:.16;stroke-width:2}.panel{fill:#ffffff;fill-opacity:.075;stroke:#ffffff;stroke-opacity:.22;stroke-width:1.4}.panel2{fill:#ffffff;fill-opacity:.12;stroke:#ffffff;stroke-opacity:.25;stroke-width:1.2}.title{font:950 74px Arial,Helvetica,sans-serif;fill:#f8f7ef;letter-spacing:-3px}.label{font:900 19px Arial,Helvetica,sans-serif;fill:#aeb3b1;letter-spacing:4px}.body{font:800 23px Arial,Helvetica,sans-serif;fill:#f8f7ef}.tiny{font:800 15px Arial,Helvetica,sans-serif;fill:#d7d9d5;letter-spacing:1px}.muted{font:800 16px Arial,Helvetica,sans-serif;fill:#8f9693;letter-spacing:2px}
  </style>
</defs><rect width="1200" height="630" fill="url(#bg)"/><rect width="1200" height="630" fill="url(#glowA)"/><line class="grid" x1="0" y1="0" x2="0" y2="630"/><line class="grid" x1="100" y1="0" x2="100" y2="630"/><line class="grid" x1="200" y1="0" x2="200" y2="630"/><line class="grid" x1="300" y1="0" x2="300" y2="630"/><line class="grid" x1="400" y1="0" x2="400" y2="630"/><line class="grid" x1="500" y1="0" x2="500" y2="630"/><line class="grid" x1="600" y1="0" x2="600" y2="630"/><line class="grid" x1="700" y1="0" x2="700" y2="630"/><line class="grid" x1="800" y1="0" x2="800" y2="630"/><line class="grid" x1="900" y1="0" x2="900" y2="630"/><line class="grid" x1="1000" y1="0" x2="1000" y2="630"/><line class="grid" x1="1100" y1="0" x2="1100" y2="630"/><line class="grid" x1="1200" y1="0" x2="1200" y2="630"/><line class="grid" x1="0" y1="0" x2="1200" y2="0"/><line class="grid" x1="0" y1="90" x2="1200" y2="90"/><line class="grid" x1="0" y1="180" x2="1200" y2="180"/><line class="grid" x1="0" y1="270" x2="1200" y2="270"/><line class="grid" x1="0" y1="360" x2="1200" y2="360"/><line class="grid" x1="0" y1="450" x2="1200" y2="450"/><line class="grid" x1="0" y1="540" x2="1200" y2="540"/><line class="grid" x1="0" y1="630" x2="1200" y2="630"/>
<circle class="ring" cx="1040" cy="120" r="126"/><circle class="ring" cx="1050" cy="518" r="82"/><circle class="ring" cx="146" cy="500" r="132"/>
<g filter="url(#soft)" opacity=".52"><circle cx="820" cy="160" r="90" fill="#45f0c2"/><circle cx="920" cy="455" r="94" fill="#ffcc4d"/><circle cx="365" cy="175" r="74" fill="#ff6f61"/></g>
<rect class="panel" x="62" y="58" width="1076" height="514" rx="58"/>
<g transform="translate(92 92)"><text class="label" x="0" y="0">RA1NDROP PRODUCT</text><text class="title" x="0" y="84">AITI</text><text class="body" x="0" y="126">AI Type Indicator</text></g>
<g filter="url(#shadow)" transform="translate(414 104)">
  <rect class="panel2" width="392" height="418" rx="42"/>
  <rect x="28" y="30" width="336" height="92" rx="28" fill="#f8f7ef" opacity=".96"/>
  <text x="54" y="69" font-family="Arial" font-size="18" font-weight="900" fill="#1b1b1b" letter-spacing="2">RESULT CARD</text>
  <text x="54" y="104" font-family="Arial" font-size="30" font-weight="950" fill="#111">AI Personality</text>
  <circle cx="302" cy="76" r="36" fill="#20c997" opacity=".9"/><circle cx="318" cy="69" r="12" fill="#fff" opacity=".7"/>
  <g transform="translate(36 154)"><polygon points="94,10 174,50 154,142 34,142 14,50" fill="none" stroke="#f8f7ef" stroke-opacity=".8" stroke-width="3"/><polygon points="94,42 137,63 126,110 60,110 49,63" fill="#20c997" opacity=".35"/></g>
  <g transform="translate(210 158)"><rect width="126" height="28" rx="14" fill="#fff" opacity=".16"/><rect y="44" width="104" height="28" rx="14" fill="#ffcc4d" opacity=".42"/><rect y="88" width="136" height="28" rx="14" fill="#ff6f61" opacity=".38"/></g>
  <g transform="translate(36 326)"><circle cx="20" cy="20" r="20" fill="#ffcc4d"/><circle cx="72" cy="20" r="20" fill="#20c997"/><circle cx="124" cy="20" r="20" fill="#61dafb"/><circle cx="176" cy="20" r="20" fill="#ff6f61"/><circle cx="228" cy="20" r="20" fill="#b991ff"/></g>
</g>
<g transform="translate(92 462)"><text class="muted" x="0" y="0">PERSONALITY SCAN / HIDDEN TENDENCY / RADAR</text><text class="tiny" x="0" y="52">Doubao</text><text class="tiny" x="162" y="52">DeepSeek</text><text class="tiny" x="348" y="52">Claude</text><text class="tiny" x="510" y="52">ChatGPT</text><text class="tiny" x="696" y="52">Gemini</text></g>
</svg>