<svg xmlns="http://www.w3.org/2000/svg" viewBox="0 0 1200 630" role="img">
  <defs>
    <linearGradient id="bg" x1="0" y1="0" x2="1" y2="1">
      <stop offset="0" stop-color="#050505"/>
      <stop offset="0.58" stop-color="#181818"/>
      <stop offset="1" stop-color="#050505"/>
    </linearGradient>
    <radialGradient id="glow" cx="24%" cy="22%" r="72%">
      <stop offset="0" stop-color="#ffffff" stop-opacity="0.18"/>
      <stop offset="0.42" stop-color="#ffffff" stop-opacity="0.04"/>
      <stop offset="1" stop-color="#ffffff" stop-opacity="0"/>
    </radialGradient>
    <style>
      .grid { stroke: #fff; stroke-opacity: .055; stroke-width: 1; }
      .panel { fill: rgba(255,255,255,.075); stroke: rgba(255,255,255,.2); stroke-width: 1.5; }
      .title { font: 950 88px Arial, Helvetica, sans-serif; fill: #f8f7ef; letter-spacing: -4px; }
      .subtitle { font: 900 23px Arial, Helvetica, sans-serif; fill: #a6aaa9; letter-spacing: 5px; }
      .desc { font: 800 25px Arial, Helvetica, sans-serif; fill: #f8f7ef; letter-spacing: 1px; }
      .chip { font: 800 18px Arial, Helvetica, sans-serif; fill: #d7d7d2; letter-spacing: 1px; }
      .small { font: 900 18px Arial, Helvetica, sans-serif; fill: #8d9290; letter-spacing: 5px; }
    </style>
  </defs>
  <rect width="1200" height="630" fill="url(#bg)"/>
  <rect width="1200" height="630" fill="url(#glow)"/>
  <line class="grid" x1="0" y1="0" x2="0" y2="630"/><line class="grid" x1="120" y1="0" x2="120" y2="630"/><line class="grid" x1="240" y1="0" x2="240" y2="630"/><line class="grid" x1="360" y1="0" x2="360" y2="630"/><line class="grid" x1="480" y1="0" x2="480" y2="630"/><line class="grid" x1="600" y1="0" x2="600" y2="630"/><line class="grid" x1="720" y1="0" x2="720" y2="630"/><line class="grid" x1="840" y1="0" x2="840" y2="630"/><line class="grid" x1="960" y1="0" x2="960" y2="630"/><line class="grid" x1="1080" y1="0" x2="1080" y2="630"/><line class="grid" x1="1200" y1="0" x2="1200" y2="630"/>
  <line class="grid" x1="0" y1="0" x2="1200" y2="0"/><line class="grid" x1="0" y1="105" x2="1200" y2="105"/><line class="grid" x1="0" y1="210" x2="1200" y2="210"/><line class="grid" x1="0" y1="315" x2="1200" y2="315"/><line class="grid" x1="0" y1="420" x2="1200" y2="420"/><line class="grid" x1="0" y1="525" x2="1200" y2="525"/><line class="grid" x1="0" y1="630" x2="1200" y2="630"/>
  <circle cx="1000" cy="132" r="122" fill="none" stroke="#ffffff" stroke-opacity=".16" stroke-width="2"/>
  <circle cx="1040" cy="500" r="96" fill="none" stroke="#ffffff" stroke-opacity=".14" stroke-width="2"/>
  <circle cx="156" cy="496" r="148" fill="none" stroke="#ffffff" stroke-opacity=".12" stroke-width="2"/>
  <rect class="panel" x="54" y="60" width="1092" height="510" rx="56"/>
  <text x="92" y="130" class="small">RA1NDROP PRODUCT</text>
  <text x="92" y="180" class="subtitle">LOCAL FIRST WINDOWS TOOL</text>
  <text x="92" y="250" class="title">QUICK</text>
<text x="92" y="350" class="title">CAPTURE</text>
  <text x="92" y="438" class="desc">CLIPBOARD / IMAGES / OBSIDIAN / AI PROCESSORS</text>
  <line x1="92" y1="482" x2="1108" y2="482" stroke="#fff" stroke-opacity=".18"/>
  <text x="92" y="532" class="chip">Capture</text>
<text x="290" y="532" class="chip">Keep Original</text>
<text x="488" y="532" class="chip">Process</text>
<text x="686" y="532" class="chip">Review</text>
</svg>